<svg width="25" height="25" viewBox="0 0 25 25" fill="none" xmlns="http://www.w3.org/2000/svg">
<path d="M12.5 2.08333C6.75629 2.08333 2.08337 6.75625 2.08337 12.5C2.08337 18.2437 6.75629 22.9167 12.5 22.9167C18.2438 22.9167 22.9167 18.2437 22.9167 12.5C22.9167 6.75625 18.2438 2.08333 12.5 2.08333ZM12.5 20.8333C7.90525 20.8333 4.16671 17.0948 4.16671 12.5C4.16671 7.9052 7.90525 4.16666 12.5 4.16666C17.0948 4.16666 20.8334 7.9052 20.8334 12.5C20.8334 17.0948 17.0948 20.8333 12.5 20.8333Z" fill="#CB8461"/>
<path d="M9.375 17.7083L17.7083 12.5L9.375 7.29167V17.7083Z" fill="#CB8461"/>
</svg>
