<svg width="25" height="25" viewBox="0 0 25 25" fill="none" xmlns="http://www.w3.org/2000/svg">
<path d="M21.1355 8.63541L16.6667 13.1042L15.3125 11.7604L13.8438 13.2396L16.6563 16.0521L22.6146 10.1146L21.1355 8.63541ZM4.16671 8.33333C4.15388 8.88401 4.25289 9.43157 4.45774 9.9429C4.66259 10.4542 4.96904 10.9187 5.35853 11.3082C5.74803 11.6977 6.21248 12.0041 6.72381 12.209C7.23513 12.4138 7.78269 12.5128 8.33337 12.5C8.88406 12.5128 9.43162 12.4138 9.94294 12.209C10.4543 12.0041 10.9187 11.6977 11.3082 11.3082C11.6977 10.9187 12.0042 10.4542 12.209 9.9429C12.4139 9.43157 12.5129 8.88401 12.5 8.33333C12.5129 7.78265 12.4139 7.23509 12.209 6.72376C12.0042 6.21244 11.6977 5.74798 11.3082 5.35849C10.9187 4.96899 10.4543 4.66255 9.94294 4.45769C9.43162 4.25284 8.88406 4.15383 8.33337 4.16666C7.78269 4.15383 7.23513 4.25284 6.72381 4.45769C6.21248 4.66255 5.74803 4.96899 5.35853 5.35849C4.96904 5.74798 4.66259 6.21244 4.45774 6.72376C4.25289 7.23509 4.15388 7.78265 4.16671 8.33333ZM10.4167 8.33333C10.4301 8.61047 10.3854 8.88734 10.2854 9.14617C10.1855 9.405 10.0325 9.64006 9.83629 9.83625C9.6401 10.0324 9.40504 10.1854 9.14621 10.2854C8.88738 10.3853 8.61051 10.4301 8.33337 10.4167C8.05624 10.4301 7.77936 10.3853 7.52054 10.2854C7.26171 10.1854 7.02665 10.0324 6.83046 9.83625C6.63426 9.64006 6.48127 9.405 6.38132 9.14617C6.28136 8.88734 6.23664 8.61047 6.25004 8.33333C6.23664 8.05619 6.28136 7.77932 6.38132 7.52049C6.48127 7.26166 6.63426 7.0266 6.83046 6.83041C7.02665 6.63422 7.26171 6.48123 7.52054 6.38127C7.77936 6.28131 8.05624 6.2366 8.33337 6.25C8.61051 6.2366 8.88738 6.28131 9.14621 6.38127C9.40504 6.48123 9.6401 6.63422 9.83629 6.83041C10.0325 7.0266 10.1855 7.26166 10.2854 7.52049C10.3854 7.77932 10.4301 8.05619 10.4167 8.33333ZM4.16671 18.75C4.16671 17.9212 4.49595 17.1263 5.082 16.5403C5.66805 15.9542 6.46291 15.625 7.29171 15.625H9.37504C10.2038 15.625 10.9987 15.9542 11.5847 16.5403C12.1708 17.1263 12.5 17.9212 12.5 18.75V19.7917H14.5834V18.75C14.5834 18.066 14.4487 17.3888 14.1869 16.7569C13.9252 16.1249 13.5415 15.5508 13.0579 15.0671C12.5742 14.5835 12.0001 14.1999 11.3682 13.9381C10.7363 13.6764 10.059 13.5417 9.37504 13.5417H7.29171C5.91037 13.5417 4.58561 14.0904 3.60886 15.0671C2.63211 16.0439 2.08337 17.3687 2.08337 18.75V19.7917H4.16671V18.75Z" fill="#CB8461"/>
</svg>
