<svg width="25" height="25" viewBox="0 0 25 25" fill="none" xmlns="http://www.w3.org/2000/svg">
<path d="M18.75 9.37499C18.75 8.22604 17.8157 7.29166 16.6667 7.29166H15.173L12.6542 3.09479C12.4686 2.787 12.2068 2.53223 11.8941 2.35507C11.5813 2.1779 11.2282 2.08431 10.8688 2.08333H5.20837V4.16666H10.8688L12.7438 7.29166H4.16671C3.01775 7.29166 2.08337 8.22604 2.08337 9.37499V18.75C2.08337 19.899 3.01775 20.8333 4.16671 20.8333H16.6667C17.8157 20.8333 18.75 19.899 18.75 18.75V15.625L22.9167 17.7083V10.4167L18.75 12.5V9.37499ZM16.6688 18.75H4.16671V9.37499H16.6667L16.6677 13.5417H16.6667V14.5833L16.6677 14.5844L16.6688 18.75Z" fill="#CB8461"/>
<path d="M6.25 14.5833H12.5V16.6667H6.25V14.5833Z" fill="#CB8461"/>
</svg>
