<svg width="126" height="21" viewBox="0 0 126 21" fill="none" xmlns="http://www.w3.org/2000/svg">
<path d="M12.728 14.984C12.728 17.816 10.52 20.168 6.584 20.168C2.96 20.168 0.128 18.368 0.00800008 14.96H4.376C4.496 16.256 5.312 16.88 6.464 16.88C7.664 16.88 8.432 16.28 8.432 15.296C8.432 12.176 0.00800008 13.856 0.0560001 7.88C0.0560001 4.688 2.672 2.912 6.2 2.912C9.872 2.912 12.344 4.736 12.512 7.952H8.072C8 6.872 7.232 6.224 6.128 6.2C5.144 6.176 4.4 6.68 4.4 7.736C4.4 10.664 12.728 9.344 12.728 14.984ZM15.2536 20V2.24H19.3576V12.056L23.4136 6.608H28.4776L22.9096 13.328L28.5256 20H23.4376L19.3576 14.384V20H15.2536ZM30.0896 20V6.608H34.1936V20H30.0896ZM32.1536 5.216C30.6896 5.216 29.7056 4.232 29.7056 3.008C29.7056 1.76 30.6896 0.775999 32.1536 0.775999C33.5936 0.775999 34.5776 1.76 34.5776 3.008C34.5776 4.232 33.5936 5.216 32.1536 5.216ZM37.1677 20V2.24H41.2717V20H37.1677ZM44.2458 20V2.24H48.3498V20H44.2458Z" fill="white"/>
<path d="M68.6499 14.984C68.6499 17.816 66.4419 20.168 62.5059 20.168C58.8819 20.168 56.0499 18.368 55.9299 14.96H60.2979C60.4179 16.256 61.2339 16.88 62.3859 16.88C63.5859 16.88 64.3539 16.28 64.3539 15.296C64.3539 12.176 55.9299 13.856 55.9779 7.88C55.9779 4.688 58.5939 2.912 62.1219 2.912C65.7939 2.912 68.2659 4.736 68.4339 7.952H63.9939C63.9219 6.872 63.1539 6.224 62.0499 6.2C61.0659 6.176 60.3219 6.68 60.3219 7.736C60.3219 10.664 68.6499 9.344 68.6499 14.984ZM71.1755 20V2.24H75.2795V8.408C76.0955 7.256 77.5595 6.464 79.4075 6.464C82.4555 6.464 84.4955 8.576 84.4955 12.176V20H80.4155V12.728C80.4155 10.904 79.4075 9.896 77.8475 9.896C76.2875 9.896 75.2795 10.904 75.2795 12.728V20H71.1755ZM100.451 13.304C100.451 17.552 97.3794 20.192 93.4434 20.192C89.5074 20.192 86.5314 17.552 86.5314 13.304C86.5314 9.056 89.5794 6.416 93.4914 6.416C97.4274 6.416 100.451 9.056 100.451 13.304ZM90.7074 13.304C90.7074 15.56 91.9554 16.64 93.4434 16.64C94.9074 16.64 96.2754 15.56 96.2754 13.304C96.2754 11.024 94.9314 9.968 93.4914 9.968C92.0034 9.968 90.7074 11.024 90.7074 13.304ZM115.733 13.304C115.733 17.552 112.661 20.192 108.725 20.192C104.789 20.192 101.813 17.552 101.813 13.304C101.813 9.056 104.861 6.416 108.773 6.416C112.709 6.416 115.733 9.056 115.733 13.304ZM105.989 13.304C105.989 15.56 107.237 16.64 108.725 16.64C110.189 16.64 111.557 15.56 111.557 13.304C111.557 11.024 110.213 9.968 108.773 9.968C107.285 9.968 105.989 11.024 105.989 13.304ZM118.558 15.344V10.016H116.926V6.608H118.558V3.344H122.662V6.608H125.35V10.016H122.662V15.392C122.662 16.184 122.998 16.52 123.91 16.52H125.374V20H123.286C120.502 20 118.558 18.824 118.558 15.344Z" fill="#CB8461"/>
</svg>
