<svg width="24" height="24" viewBox="0 0 24 24" fill="none" xmlns="http://www.w3.org/2000/svg">
<path d="M1.6875 10.1251C1.43886 10.1251 1.2004 10.0263 1.02459 9.8505C0.848772 9.67469 0.75 9.43623 0.75 9.18759V1.68945C0.75 1.44081 0.848772 1.20236 1.02459 1.02654C1.2004 0.850725 1.43886 0.751953 1.6875 0.751953H9.1875C9.43614 0.751953 9.6746 0.850725 9.85041 1.02654C10.0262 1.20236 10.125 1.44081 10.125 1.68945V9.18759C10.125 9.43623 10.0262 9.67469 9.85041 9.8505C9.6746 10.0263 9.43614 10.1251 9.1875 10.1251H1.6875ZM14.8125 10.1251C14.5639 10.1251 14.3254 10.0263 14.1496 9.8505C13.9738 9.67469 13.875 9.43623 13.875 9.18759V1.68945C13.875 1.44081 13.9738 1.20236 14.1496 1.02654C14.3254 0.850725 14.5639 0.751953 14.8125 0.751953H22.3106C22.5593 0.751953 22.7977 0.850725 22.9735 1.02654C23.1494 1.20236 23.2481 1.44081 23.2481 1.68945V9.18759C23.2481 9.43623 23.1494 9.67469 22.9735 9.8505C22.7977 10.0263 22.5593 10.1251 22.3106 10.1251H14.8125ZM1.6875 23.2501C1.43886 23.2501 1.2004 23.1513 1.02459 22.9755C0.848772 22.7997 0.75 22.5612 0.75 22.3126V14.8126C0.75 14.564 0.848772 14.3255 1.02459 14.1497C1.2004 13.9739 1.43886 13.8751 1.6875 13.8751H9.1875C9.43614 13.8751 9.6746 13.9739 9.85041 14.1497C10.0262 14.3255 10.125 14.564 10.125 14.8126V22.3126C10.125 22.5612 10.0262 22.7997 9.85041 22.9755C9.6746 23.1513 9.43614 23.2501 9.1875 23.2501H1.6875ZM14.8125 23.2501C14.5639 23.2501 14.3254 23.1513 14.1496 22.9755C13.9738 22.7997 13.875 22.5612 13.875 22.3126V14.8126C13.875 14.564 13.9738 14.3255 14.1496 14.1497C14.3254 13.9739 14.5639 13.8751 14.8125 13.8751H22.3106C22.5593 13.8751 22.7977 13.9739 22.9735 14.1497C23.1494 14.3255 23.2481 14.564 23.2481 14.8126V22.3126C23.2481 22.5612 23.1494 22.7997 22.9735 22.9755C22.7977 23.1513 22.5593 23.2501 22.3106 23.2501H14.8125Z" fill="white"/>
</svg>
